{
  "accessors": [
    {
      "bufferView": 2,
      "componentType": 5126,
      "count": 65532,
      "max": [
        45.95029830932617,
        11.034661293029785,
        92.59501647949219
      ],
      "min": [
        -63.35158157348633,
        -106.63451385498047,
        -137.11572265625
      ],
      "type": "VEC3"
    },
    {
      "bufferView": 2,
      "byteOffset": 786384,
      "componentType": 5126,
      "count": 65532,
      "max": [
        0.9999939203262329,
        0.9999994039535522,
        0.9999354481697083
      ],
      "min": [
        -0.9999317526817322,
        -0.9997742176055908,
        -0.9999961853027344
      ],
      "type": "VEC3"
    },
    {
      "bufferView": 1,
      "componentType": 5126,
      "count": 65532,
      "max": [
        0.9975849986076355,
        0.9414060115814209
      ],
      "min": [
        0.0007810000097379088,
        0.0007830000249668956
      ],
      "type": "VEC2"
    },
    {
      "bufferView": 0,
      "componentType": 5125,
      "count": 294219,
      "type": "SCALAR"
    },
    {
      "bufferView": 2,
      "byteOffset": 1572768,
      "componentType": 5126,
      "count": 65532,
      "max": [
        32.8001823425293,
        10.22034740447998,
        92.52615356445313
      ],
      "min": [
        -63.35449981689453,
        -123.59545135498047,
        -136.20726013183594
      ],
      "type": "VEC3"
    },
    {
      "bufferView": 2,
      "byteOffset": 2359152,
      "componentType": 5126,
      "count": 65532,
      "max": [
        0.9996356964111328,
        0.9965024590492249,
        0.9998868703842163
      ],
      "min": [
        -0.9999886751174927,
        -0.9999704957008362,
        -0.9998884201049805
      ],
      "type": "VEC3"
    },
    {
      "bufferView": 1,
      "byteOffset": 524256,
      "componentType": 5126,
      "count": 65532,
      "max": [
        0.8751749992370605,
        0.9992190003395081
      ],
      "min": [
        0.0898440033197403,
        0.19458800554275513
      ],
      "type": "VEC2"
    },
    {
      "bufferView": 0,
      "byteOffset": 1176876,
      "componentType": 5125,
      "count": 354066,
      "type": "SCALAR"
    },
    {
      "bufferView": 2,
      "byteOffset": 3145536,
      "componentType": 5126,
      "count": 65532,
      "max": [
        60.15936279296875,
        6.758707046508789,
        153.01809692382813
      ],
      "min": [
        -52.444881439208984,
        -123.34330749511719,
        -134.42770385742188
      ],
      "type": "VEC3"
    },
    {
      "bufferView": 2,
      "byteOffset": 3931920,
      "componentType": 5126,
      "count": 65532,
      "max": [
        0.9999762773513794,
        0.995101273059845,
        0.9999573826789856
      ],
      "min": [
        -0.9999956488609314,
        -0.9999966621398926,
        -0.9984667301177979
      ],
      "type": "VEC3"
    },
    {
      "bufferView": 1,
      "byteOffset": 1048512,
      "componentType": 5126,
      "count": 65532,
      "max": [
        0.9975280165672302,
        0.9992190003395081
      ],
      "min": [
        0.0007810000097379088,
        0.21662700176239014
      ],
      "type": "VEC2"
    },
    {
      "bufferView": 0,
      "byteOffset": 2593140,
      "componentType": 5125,
      "count": 335994,
      "type": "SCALAR"
    },
    {
      "bufferView": 2,
      "byteOffset": 4718304,
      "componentType": 5126,
      "count": 65532,
      "max": [
        60.24557113647461,
        10.60132122039795,
        147.39613342285156
      ],
      "min": [
        -55.00556564331055,
        -123.56159973144531,
        -99.12222290039063
      ],
      "type": "VEC3"
    },
    {
      "bufferView": 2,
      "byteOffset": 5504688,
      "componentType": 5126,
      "count": 65532,
      "max": [
        0.9999972581863403,
        0.9999998807907104,
        0.9991657733917236
      ],
      "min": [
        -0.9992694854736328,
        -0.9999966621398926,
        -0.9998834133148193
      ],
      "type": "VEC3"
    },
    {
      "bufferView": 1,
      "byteOffset": 1572768,
      "componentType": 5126,
      "count": 65532,
      "max": [
        0.9933990240097046,
        0.9923440217971802
      ],
      "min": [
        0.08749999850988388,
        0.03709699958562851
      ],
      "type": "VEC2"
    },
    {
      "bufferView": 0,
      "byteOffset": 3937116,
      "componentType": 5125,
      "count": 311895,
      "type": "SCALAR"
    },
    {
      "bufferView": 2,
      "byteOffset": 6291072,
      "componentType": 5126,
      "count": 65532,
      "max": [
        56.322349548339844,
        11.051464080810547,
        153.03330993652344
      ],
      "min": [
        -54.52666473388672,
        -82.89401245117188,
        -137.0435333251953
      ],
      "type": "VEC3"
    },
    {
      "bufferView": 2,
      "byteOffset": 7077456,
      "componentType": 5126,
      "count": 65532,
      "max": [
        0.9999943971633911,
        0.9999997615814209,
        0.9999503493309021
      ],
      "min": [
        -0.9989727139472961,
        -0.9998468160629272,
        -0.9999711513519287
      ],
      "type": "VEC3"
    },
    {
      "bufferView": 1,
      "byteOffset": 2097024,
      "componentType": 5126,
      "count": 65532,
      "max": [
        0.9969069957733154,
        0.8296869993209839
      ],
      "min": [
        0.010156000033020973,
        0.0008110000053420663
      ],
      "type": "VEC2"
    },
    {
      "bufferView": 0,
      "byteOffset": 5184696,
      "componentType": 5125,
      "count": 324453,
      "type": "SCALAR"
    },
    {
      "bufferView": 2,
      "byteOffset": 7863840,
      "componentType": 5126,
      "count": 6337,
      "max": [
        32.390499114990234,
        11.070175170898438,
        87.7878646850586
      ],
      "min": [
        -54.44337463378906,
        -76.7801513671875,
        -105.86282348632813
      ],
      "type": "VEC3"
    },
    {
      "bufferView": 2,
      "byteOffset": 7939884,
      "componentType": 5126,
      "count": 6337,
      "max": [
        0.9992834329605103,
        0.9999979138374329,
        0.9992480278015137
      ],
      "min": [
        -0.9994556903839111,
        -0.9964310526847839,
        -0.9992543458938599
      ],
      "type": "VEC3"
    },
    {
      "bufferView": 1,
      "byteOffset": 2621280,
      "componentType": 5126,
      "count": 6337,
      "max": [
        0.933908998966217,
        0.5421879887580872
      ],
      "min": [
        0.030469000339508057,
        0.0008120000129565597
      ],
      "type": "VEC2"
    },
    {
      "bufferView": 0,
      "byteOffset": 6482508,
      "componentType": 5125,
      "count": 26601,
      "type": "SCALAR"
    }
  ],
  "asset": {
    "extras": {
      "author": "Aquateknica (https://sketchfab.com/aquateknica)",
      "license": "CC-BY-NC-4.0 (http://creativecommons.org/licenses/by-nc/4.0/)",
      "source": "https://sketchfab.com/3d-models/sneaker-4cc5b5a2fd54454182f14c5e80782287",
      "title": "Sneaker"
    },
    "generator": "Sketchfab-12.67.0",
    "version": "2.0"
  },
  "bufferViews": [
    {
      "buffer": 0,
      "byteLength": 6588912,
      "name": "floatBufferViews",
      "target": 34963
    },
    {
      "buffer": 0,
      "byteLength": 2671976,
      "byteOffset": 6588912,
      "byteStride": 8,
      "name": "floatBufferViews",
      "target": 34962
    },
    {
      "buffer": 0,
      "byteLength": 8015928,
      "byteOffset": 9260888,
      "byteStride": 12,
      "name": "floatBufferViews",
      "target": 34962
    }
  ],
  "buffers": [
    {
      "byteLength": 17276816,
      "uri": "scene.bin"
    }
  ],
  "images": [
    {
      "uri": "textures/material_0_baseColor.png"
    },
    {
      "uri": "textures/material_0_metallicRoughness.png"
    }
  ],
  "materials": [
    {
      "doubleSided": true,
      "name": "material_0",
      "pbrMetallicRoughness": {
        "baseColorTexture": {
          "index": 0
        },
        "metallicFactor": 0.0,
        "metallicRoughnessTexture": {
          "index": 1
        }
      }
    }
  ],
  "meshes": [
    {
      "name": "Object_0",
      "primitives": [
        {
          "attributes": {
            "NORMAL": 1,
            "POSITION": 0,
            "TEXCOORD_0": 2
          },
          "indices": 3,
          "material": 0,
          "mode": 4
        }
      ]
    },
    {
      "name": "Object_1",
      "primitives": [
        {
          "attributes": {
            "NORMAL": 5,
            "POSITION": 4,
            "TEXCOORD_0": 6
          },
          "indices": 7,
          "material": 0,
          "mode": 4
        }
      ]
    },
    {
      "name": "Object_2",
      "primitives": [
        {
          "attributes": {
            "NORMAL": 9,
            "POSITION": 8,
            "TEXCOORD_0": 10
          },
          "indices": 11,
          "material": 0,
          "mode": 4
        }
      ]
    },
    {
      "name": "Object_3",
      "primitives": [
        {
          "attributes": {
            "NORMAL": 13,
            "POSITION": 12,
            "TEXCOORD_0": 14
          },
          "indices": 15,
          "material": 0,
          "mode": 4
        }
      ]
    },
    {
      "name": "Object_4",
      "primitives": [
        {
          "attributes": {
            "NORMAL": 17,
            "POSITION": 16,
            "TEXCOORD_0": 18
          },
          "indices": 19,
          "material": 0,
          "mode": 4
        }
      ]
    },
    {
      "name": "Object_5",
      "primitives": [
        {
          "attributes": {
            "NORMAL": 21,
            "POSITION": 20,
            "TEXCOORD_0": 22
          },
          "indices": 23,
          "material": 0,
          "mode": 4
        }
      ]
    }
  ],
  "nodes": [
    {
      "children": [
        1
      ],
      "matrix": [
        -2.220446049250313e-16,
        -5.551115123125783e-16,
        1.0,
        0.0,
        1.1102230246251565e-16,
        -1.0,
        -4.440892098500626e-16,
        0.0,
        1.0,
        -2.465190328815662e-32,
        1.1102230246251565e-16,
        0.0,
        -9.51284408569336,
        -48.303718566894545,
        57.816562652587876,
        1.0
      ],
      "name": "Sketchfab_model"
    },
    {
      "children": [
        2,
        3,
        4,
        5,
        6,
        7
      ],
      "name": "COMPARATIVA LEO VS SPIDER.obj.cleaner.materialmerger.gles"
    },
    {
      "mesh": 0,
      "name": "Object_2"
    },
    {
      "mesh": 1,
      "name": "Object_3"
    },
    {
      "mesh": 2,
      "name": "Object_4"
    },
    {
      "mesh": 3,
      "name": "Object_5"
    },
    {
      "mesh": 4,
      "name": "Object_6"
    },
    {
      "mesh": 5,
      "name": "Object_7"
    }
  ],
  "samplers": [
    {
      "magFilter": 9729,
      "minFilter": 9987,
      "wrapS": 10497,
      "wrapT": 10497
    }
  ],
  "scene": 0,
  "scenes": [
    {
      "name": "Sketchfab_Scene",
      "nodes": [
        0
      ]
    }
  ],
  "textures": [
    {
      "sampler": 0,
      "source": 0
    },
    {
      "sampler": 0,
      "source": 1
    }
  ]
}
